<?xml version="1.0" encoding="UTF-8"?>
<!-- Generator: visioncortex VTracer 0.6.4 -->
<svg version="1.1" xmlns="http://www.w3.org/2000/svg" width="1248" height="832">
<path d="M0 0 C411.84 0 823.68 0 1248 0 C1248 274.56 1248 549.12 1248 832 C836.16 832 424.32 832 0 832 C0 557.44 0 282.88 0 0 Z " fill="#FDFDFD" transform="translate(0,0)"/>
<path d="M0 0 C0.92451462 -0.00525696 1.84902924 -0.01051392 2.80155945 -0.01593018 C5.84192053 -0.02907785 8.8817532 -0.02040981 11.92211914 -0.01025391 C14.04529419 -0.01227631 16.16846856 -0.01518914 18.29164124 -0.01895142 C22.73583608 -0.02336784 27.1798497 -0.0169662 31.62402344 -0.00292969 C37.30778676 0.01415119 42.99112471 0.00432344 48.6748724 -0.01364708 C53.05789873 -0.02451217 57.44082502 -0.02102587 61.82385445 -0.0132637 C63.91893121 -0.01126869 66.01401718 -0.0136963 68.10908318 -0.02070236 C71.04301721 -0.02836049 73.97627248 -0.01665104 76.91015625 0 C77.76806763 -0.00607269 78.625979 -0.01214539 79.5098877 -0.0184021 C86.70399622 0.05685805 93.61640766 1.57710285 99.08114624 6.66229248 C107.26788975 16.48374499 107.33764567 26.55580781 107.10571289 38.62255859 C107.09449724 40.35417192 107.08596828 42.08580453 107.07998657 43.81744385 C107.05727406 48.33551269 106.99850755 52.85239091 106.9317627 57.36999512 C106.86995627 61.99568585 106.84289037 66.62157237 106.81274414 71.24755859 C106.74874308 80.29495156 106.64658238 89.34146789 106.51977539 98.38818359 C107.49981537 98.37930115 108.47985535 98.3704187 109.48959351 98.36126709 C118.75758372 98.2799304 128.02550084 98.22009832 137.29376793 98.18093491 C142.05789524 98.16012317 146.82173278 98.13192371 151.58569336 98.08642578 C156.18930507 98.04273795 160.79263929 98.01899832 165.39644241 98.00867462 C167.14660633 98.0013242 168.89675627 97.98697114 170.64680099 97.96526337 C181.77472321 97.83280977 190.21403673 98.34299276 199.83227539 104.51318359 C209.25210337 114.59020888 208.24185315 125.86536282 208.14868164 138.86474609 C208.14951139 140.96121341 208.15197477 143.05768065 208.1559906 145.15414429 C208.15883953 149.53346494 208.14423319 153.91227158 208.11669922 158.29150391 C208.08257617 163.89124935 208.08865758 169.49007891 208.10736179 175.08986855 C208.11795211 179.41374281 208.10897613 183.7374056 208.09397697 188.06126022 C208.0888125 190.12562812 208.08925579 192.19001825 208.09552193 194.25438309 C208.10100038 197.14272504 208.08051627 200.02977432 208.05322266 202.91796875 C208.06301147 204.18374001 208.06301147 204.18374001 208.07299805 205.4750824 C207.93771174 213.93698133 204.49949667 220.40846232 198.51977539 226.38818359 C193.04264702 229.99497986 188.27302239 230.9636376 181.80883789 230.84228516 C180.56350533 230.84316132 180.56350533 230.84316132 179.29301453 230.84405518 C176.5764943 230.84129096 173.8611015 230.81027915 171.14477539 230.77880859 C169.25049438 230.77134026 167.35620559 230.76565013 165.46191406 230.76165771 C160.49695177 230.74644801 155.53246394 230.70720673 150.56768799 230.6628418 C145.49318864 230.62178811 140.41861199 230.6036252 135.34399414 230.58349609 C125.40238042 230.54070769 115.46111749 230.47251328 105.51977539 230.38818359 C105.52976814 231.8494442 105.52976814 231.8494442 105.53996277 233.34022522 C105.60086444 242.53559886 105.64579146 251.73093141 105.67521191 260.92646122 C105.69084591 265.65361522 105.71204272 270.38060596 105.74609375 275.10766602 C105.77876811 279.67234838 105.79664545 284.23687403 105.80440712 288.80166435 C105.80993615 290.54033308 105.820733 292.27899355 105.83696556 294.01759529 C105.85884747 296.45910075 105.86173787 298.89996447 105.86035156 301.34155273 C105.87113739 302.05509415 105.88192322 302.76863556 105.89303589 303.50379944 C105.8518946 310.23107839 103.73748437 315.97008353 99.0982666 320.98110962 C89.56595704 329.47825209 77.64845275 328.1188965 65.67602539 328.05224609 C63.53950729 328.05561924 61.40299107 328.060476 59.26647949 328.06674194 C54.80140813 328.07408965 50.33683889 328.06347541 45.87182617 328.04003906 C40.1690295 328.01155306 34.46740964 328.02796828 28.76465607 328.05790138 C24.35662077 328.07603108 19.94886119 328.07019029 15.54081726 328.05726242 C13.43901935 328.05394409 11.33719582 328.05795966 9.23542786 328.06966019 C-13.30454973 328.16762454 -13.30454973 328.16762454 -21.38708496 320.60366821 C-26.75884191 315.03012566 -27.78326072 309.0333381 -27.70727539 301.45507812 C-27.70756744 300.68366989 -27.7078595 299.91226166 -27.7081604 299.11747742 C-27.70677472 296.5851998 -27.69124973 294.05322188 -27.67553711 291.52099609 C-27.67180426 289.75837362 -27.66895857 287.99574907 -27.66696167 286.23312378 C-27.65934659 281.60695611 -27.63971643 276.98091517 -27.61755371 272.35479736 C-27.59704942 267.62896438 -27.58795017 262.9031108 -27.57788086 258.17724609 C-27.55646847 248.91416976 -27.52235827 239.65118724 -27.48022461 230.38818359 C-28.48976196 230.39262482 -29.49929932 230.39706604 -30.53942871 230.40164185 C-40.07298413 230.44225955 -49.6065219 230.47220234 -59.14014435 230.49180794 C-64.04097614 230.50222633 -68.94173784 230.51634997 -73.8425293 230.5390625 C-78.5757872 230.56086028 -83.30897786 230.57276683 -88.0422821 230.57793808 C-89.84430499 230.5816214 -91.64632437 230.58881394 -93.44831848 230.59964371 C-95.98051792 230.61425088 -98.51244266 230.6161577 -101.04467773 230.61523438 C-102.15167526 230.6260202 -102.15167526 230.6260202 -103.28103638 230.63702393 C-110.8131036 230.60748131 -117.29219274 229.42249632 -122.94116211 224.17333984 C-128.44262701 217.79219908 -129.63054545 210.82255168 -129.64135742 202.63745117 C-129.64632233 201.74278137 -129.65128723 200.84811157 -129.65640259 199.92633057 C-129.67102556 196.96178419 -129.67782742 193.99729138 -129.68334961 191.03271484 C-129.68910215 188.97108458 -129.69485988 186.90945433 -129.70062256 184.8478241 C-129.71113376 180.52102408 -129.71697525 176.19424264 -129.72045898 171.86743164 C-129.72593561 166.33380662 -129.74994544 160.80042867 -129.77843094 155.26688099 C-129.79709459 151.00568434 -129.80226497 146.74454667 -129.80379486 142.48331261 C-129.80681488 140.4440444 -129.81482135 138.40477707 -129.82798004 136.36554909 C-129.84511389 133.50547384 -129.84314205 130.64599501 -129.83666992 127.78588867 C-129.8504921 126.53167366 -129.8504921 126.53167366 -129.86459351 125.25212097 C-129.80533499 116.85487803 -127.47375893 110.52110244 -121.48022461 104.38818359 C-115.05690475 99.46819392 -109.34837894 98.08310546 -101.36352539 98.16113281 C-100.17715233 98.16069473 -100.17715233 98.16069473 -98.96681213 98.1602478 C-96.36960631 98.16163386 -93.77269242 98.17716072 -91.17553711 98.19287109 C-89.3680741 98.1966038 -87.56060907 98.19944956 -85.75314331 98.20144653 C-81.00860962 98.20906269 -76.26419944 98.2286938 -71.51971436 98.25085449 C-66.67323477 98.27135645 -61.82673512 98.28045754 -56.98022461 98.29052734 C-47.48017051 98.31194164 -37.98020785 98.34605316 -28.48022461 98.38818359 C-28.49132767 97.42067169 -28.50243073 96.45315979 -28.51387024 95.45632935 C-28.61554803 86.30610791 -28.69033404 77.15600219 -28.73928547 68.00534248 C-28.76529879 63.30166062 -28.80054429 58.59843746 -28.85742188 53.89501953 C-28.91203854 49.34974582 -28.94170721 44.80491129 -28.95461082 40.25933456 C-28.96379781 38.53147348 -28.98173733 36.80363446 -29.00887489 35.07596207 C-29.1647176 24.73644465 -29.16941132 15.51693198 -21.72431946 7.49661255 C-15.27244029 1.3362898 -8.61931141 -0.06086785 0 0 Z " fill="#FBFBFB" transform="translate(559.480224609375,248.61181640625)"/>
<path d="M0 0 C1.53333984 0.5259375 1.53333984 0.5259375 3.09765625 1.0625 C14.51091613 5.08147459 25.27048913 10.44307052 36 16 C37.00522705 16.52037842 37.00522705 16.52037842 38.03076172 17.05126953 C48.82714451 22.7095352 58.45545326 29.43829924 68 37 C68.54591797 37.42877441 69.09183594 37.85754883 69.65429688 38.29931641 C74.8830574 42.41869615 79.83089148 46.65453531 84.44921875 51.44921875 C85.93896278 52.93896278 87.47901972 54.24988281 89.125 55.5625 C92.2031907 58.17227038 94.50399508 60.84328789 97 64 C95.54014515 67.56330162 93.67896037 69.32184716 90.625 71.625 C89.85414063 72.21539062 89.08328125 72.80578125 88.2890625 73.4140625 C86.23976655 74.83388188 84.23599609 75.91522146 82 77 C81.58862793 76.57291748 81.17725586 76.14583496 80.75341797 75.70581055 C71.69150568 66.34618919 62.53804922 57.66942741 52 50 C50.9790625 49.24589844 49.958125 48.49179688 48.90625 47.71484375 C33.36700107 36.59015417 16.80249138 27.89556463 -1 21 C-1.82661133 20.67515625 -2.65322266 20.3503125 -3.50488281 20.015625 C-23.19144032 12.42412752 -45.48890134 7.95628325 -66.62109375 7.83203125 C-67.66774956 7.82574707 -67.66774956 7.82574707 -68.73554993 7.81933594 C-70.96959212 7.8096456 -73.20344047 7.80953093 -75.4375 7.8125 C-76.19977905 7.81277191 -76.96205811 7.81304382 -77.74743652 7.81332397 C-88.62154945 7.83121939 -99.27071459 8.0614132 -110 10 C-111.11375 10.19464844 -112.2275 10.38929688 -113.375 10.58984375 C-152.34805854 18.21304617 -188.75647807 35.91922537 -217.8828125 63.03515625 C-219.85245492 64.86307163 -221.87777648 66.58779175 -223.9375 68.3125 C-243.61488856 85.58443625 -259.21738007 109.29996436 -270 133 C-270.34691895 133.76103027 -270.69383789 134.52206055 -271.05126953 135.30615234 C-275.20944322 144.54004869 -278.77831892 153.64402043 -281.11328125 163.5078125 C-281.78986532 166.17242113 -282.55780246 168.63817187 -283.47265625 171.21875 C-285.27158382 176.51089834 -286.2125209 181.87092608 -287.125 187.375 C-287.29386719 188.33921875 -287.46273438 189.3034375 -287.63671875 190.296875 C-289.5534333 201.55568645 -290.18660742 212.64581936 -290.18530273 224.05004883 C-290.18747896 226.16703741 -290.20567998 228.28349424 -290.22460938 230.40039062 C-290.26492075 240.08116058 -289.4352342 249.4307027 -288 259 C-287.85393311 259.98830811 -287.70786621 260.97661621 -287.55737305 261.99487305 C-281.04634059 303.81881616 -262.96551763 341.37835072 -235 373 C-234.29327148 373.80147461 -234.29327148 373.80147461 -233.57226562 374.61914062 C-228.06390143 380.83389804 -222.47269796 386.77032881 -216 392 C-215.00742187 392.81855469 -214.01484375 393.63710938 -212.9921875 394.48046875 C-189.79105685 413.3533838 -163.69678467 426.75003784 -135 435 C-133.77796875 435.35964844 -132.5559375 435.71929688 -131.296875 436.08984375 C-116.8144788 440.17264694 -102.05350434 442.59074772 -87 443 C-85.59983643 443.04084717 -85.59983643 443.04084717 -84.17138672 443.08251953 C-27.9887466 444.48378067 26.45792747 425.33701944 67.44921875 386.375 C70 384 70 384 72.63671875 381.90234375 C76.24318994 378.99928347 79.01147744 375.51956437 82 372 C82.81597656 371.08347656 83.63195312 370.16695312 84.47265625 369.22265625 C92.24503861 360.41879353 98.79936711 350.96348272 105 341 C105.43699219 340.29810547 105.87398437 339.59621094 106.32421875 338.87304688 C118.70605784 318.62397771 133 290.13529876 133 266 C131.38025441 264.28769752 129.7041054 262.62836738 128 261 C122.43489411 254.15538223 121.80951202 249.10704003 121.82421875 240.4296875 C121.82635628 238.98334427 121.82635628 238.98334427 121.82853699 237.50778198 C121.91658351 226.49423128 122.67890245 215.53900846 123.54418945 204.56298828 C123.81595649 201.08071038 124.06573549 197.59727315 124.31445312 194.11328125 C124.48566925 191.86969132 124.65814785 189.62619729 124.83203125 187.3828125 C124.90404251 186.35568146 124.97605377 185.32855042 125.05024719 184.27029419 C125.70572875 176.3126762 127.21192867 167.11238243 133.60546875 161.62109375 C139.99549309 156.83879408 145.18555982 156.76546019 153 157 C154.03769531 157.02835938 155.07539062 157.05671875 156.14453125 157.0859375 C164.18091547 157.50212509 164.18091547 157.50212509 168.1875 159.9375 C171.28448924 163.46166017 171.38876764 166.17507424 171.359375 170.73828125 C170.78943134 174.32520929 168.79773951 175.86838894 166 178 C163.13391871 179.43304064 161.18699217 179.30644155 158 179 C156 177.66666667 154 176.33333333 152 175 C148.83073436 174.49830585 148.83073436 174.49830585 146 175 C143.572737 177.427263 143.66883132 178.27723099 143.40576172 181.62304688 C143.32582977 182.58585571 143.24589783 183.54866455 143.1635437 184.54064941 C143.08637115 185.58942261 143.00919861 186.6381958 142.9296875 187.71875 C142.84373322 188.80522827 142.75777893 189.89170654 142.66921997 191.0111084 C142.48843207 193.32428393 142.31220876 195.63781994 142.14013672 197.95166016 C141.88015113 201.43106218 141.60342325 204.90881266 141.32421875 208.38671875 C140.54499642 218.33747543 139.82460946 228.29942932 139.6328125 238.28125 C139.60637665 238.9875354 139.5799408 239.6938208 139.55270386 240.42150879 C139.5295746 245.39086446 140.9085542 248.17054517 144 252 C148.02488861 254.75219656 152.29568079 254.61682507 157 254 C166.6985371 249.92661442 171.84263143 235.90402142 176.6875 227.125 C180.25993328 220.66876027 183.83984719 214.22660164 187.609375 207.8828125 C188.17052002 206.93132324 188.73166504 205.97983398 189.30981445 204.99951172 C190.37211134 203.20506331 191.44570083 201.41723851 192.53198242 199.63720703 C193.24124878 198.43233643 193.24124878 198.43233643 193.96484375 197.203125 C194.3837085 196.50864258 194.80257324 195.81416016 195.23413086 195.09863281 C196.24523714 192.32800178 195.95395487 190.76609748 195 188 C191.83586995 185.89057996 190.77546696 185.74557813 187.125 185.5625 C183.0224161 185.21563431 180.23865178 184.73261244 177 182 C174.42810321 178.57080428 174.497858 175.16060514 175 171 C176.78476241 168.02760759 178.85208055 165.57395973 182 164 C186.37595861 163.50273198 188.66461664 164.1025141 192.171875 166.7421875 C194.4821717 168.33175061 196.92985768 169.49617884 199.4375 170.75 C205.28692626 173.87820613 209.99623359 177.99246718 213 184 C214.67871205 194.00304707 211.03541946 201.23553817 206.30078125 209.67333984 C204.91097731 212.15923166 203.5624438 214.66468405 202.21875 217.17578125 C199.19301135 222.81028041 196.10517569 228.40896344 193 234 C192.4726123 234.95293945 191.94522461 235.90587891 191.40185547 236.88769531 C189.83990685 239.70140477 188.26597014 242.50803121 186.6875 245.3125 C186.22053711 246.15321045 185.75357422 246.9939209 185.27246094 247.86010742 C179.09893869 258.73338119 172.33901271 268.07766483 160 272 C157.22725487 272.29380081 154.79723465 272.20343525 152 272 C151.86464844 272.804375 151.72929688 273.60875 151.58984375 274.4375 C150.05023856 282.84540379 147.98536436 291.03427564 145.625 299.25 C145.34519287 300.24257813 145.06538574 301.23515625 144.77709961 302.2578125 C142.7553884 309.15736669 140.09929884 315.52154805 137 322 C136.16277052 323.82362616 135.32683959 325.64784902 134.4921875 327.47265625 C126.46536061 344.72514168 117.55050436 360.70856923 105.35742188 375.36621094 C104.02070463 376.97507996 102.7047512 378.59921976 101.390625 380.2265625 C91.20567477 392.69820078 79.81879595 404.23582072 67 414 C66.47567383 414.41137207 65.95134766 414.82274414 65.41113281 415.24658203 C47.10488456 429.58912958 25.54511713 441.79876981 3.421875 449.1484375 C0.8775651 449.99646775 0.8775651 449.99646775 -1.9296875 451.3828125 C-7.65986936 453.86743168 -13.81851018 455.0672147 -19.875 456.5 C-21.08414062 456.79519531 -22.29328125 457.09039063 -23.5390625 457.39453125 C-27.35034564 458.30714863 -31.17048703 459.16821267 -35 460 C-35.97084534 460.21669846 -35.97084534 460.21669846 -36.96130371 460.43777466 C-49.46896184 463.1724053 -61.72937736 463.51751954 -74.5 463.4375 C-75.51335419 463.43479095 -76.52670837 463.43208191 -77.57077026 463.42929077 C-93.08854296 463.36640383 -107.82860731 462.46758528 -123 459 C-124.81741596 458.62099114 -126.63512654 458.24339233 -128.453125 457.8671875 C-168.86999601 449.18266125 -207.96392327 428.45368028 -237.51025391 399.45898438 C-239.01728075 397.98307608 -240.54418369 396.53013167 -242.07421875 395.078125 C-248.98671142 388.4365809 -254.9823282 381.31701546 -260.74023438 373.66113281 C-261.89367251 372.14020392 -263.07818647 370.6429722 -264.265625 369.1484375 C-294.08565367 331.06890449 -310.25975374 280.88394884 -310.13037109 232.74365234 C-310.12505816 230.40064885 -310.13031846 228.05784107 -310.13671875 225.71484375 C-310.14592509 211.14687059 -309.53407646 196.90899477 -306.75 182.5625 C-306.52602539 181.39291748 -306.30205078 180.22333496 -306.07128906 179.01831055 C-304.25427678 169.79627239 -302.06756074 160.88159175 -299 152 C-298.7014209 151.11844238 -298.4028418 150.23688477 -298.09521484 149.32861328 C-288.78824897 122.17908729 -275.18097843 97.22344542 -257 75 C-256.54012695 74.43716309 -256.08025391 73.87432617 -255.60644531 73.29443359 C-245.17765196 60.63089881 -233.97095867 49.08246788 -221 39 C-219.52660156 37.81857422 -219.52660156 37.81857422 -218.0234375 36.61328125 C-186.88093132 11.84216775 -150.32169259 -3.98849149 -111 -10 C-110.25991699 -10.11714355 -109.51983398 -10.23428711 -108.75732422 -10.35498047 C-72.89818622 -15.79161031 -34.14227204 -11.99913376 0 0 Z " fill="#053077" transform="translate(674,182)"/>
<path d="M0 0 C0.92451462 -0.00525696 1.84902924 -0.01051392 2.80155945 -0.01593018 C5.84192053 -0.02907785 8.8817532 -0.02040981 11.92211914 -0.01025391 C14.04529419 -0.01227631 16.16846856 -0.01518914 18.29164124 -0.01895142 C22.73583608 -0.02336784 27.1798497 -0.0169662 31.62402344 -0.00292969 C37.30778676 0.01415119 42.99112471 0.00432344 48.6748724 -0.01364708 C53.05789873 -0.02451217 57.44082502 -0.02102587 61.82385445 -0.0132637 C63.91893121 -0.01126869 66.01401718 -0.0136963 68.10908318 -0.02070236 C71.04301721 -0.02836049 73.97627248 -0.01665104 76.91015625 0 C77.76806763 -0.00607269 78.625979 -0.01214539 79.5098877 -0.0184021 C86.70399622 0.05685805 93.61640766 1.57710285 99.08114624 6.66229248 C107.26788975 16.48374499 107.33764567 26.55580781 107.10571289 38.62255859 C107.09449724 40.35417192 107.08596828 42.08580453 107.07998657 43.81744385 C107.05727406 48.33551269 106.99850755 52.85239091 106.9317627 57.36999512 C106.86995627 61.99568585 106.84289037 66.62157237 106.81274414 71.24755859 C106.74874308 80.29495156 106.64658238 89.34146789 106.51977539 98.38818359 C107.49981537 98.37930115 108.47985535 98.3704187 109.48959351 98.36126709 C118.75758372 98.2799304 128.02550084 98.22009832 137.29376793 98.18093491 C142.05789524 98.16012317 146.82173278 98.13192371 151.58569336 98.08642578 C156.18930507 98.04273795 160.79263929 98.01899832 165.39644241 98.00867462 C167.14660633 98.0013242 168.89675627 97.98697114 170.64680099 97.96526337 C181.77472321 97.83280977 190.21403673 98.34299276 199.83227539 104.51318359 C209.25210337 114.59020888 208.24185315 125.86536282 208.14868164 138.86474609 C208.14951139 140.96121341 208.15197477 143.05768065 208.1559906 145.15414429 C208.15883953 149.53346494 208.14423319 153.91227158 208.11669922 158.29150391 C208.08257617 163.89124935 208.08865758 169.49007891 208.10736179 175.08986855 C208.11795211 179.41374281 208.10897613 183.7374056 208.09397697 188.06126022 C208.0888125 190.12562812 208.08925579 192.19001825 208.09552193 194.25438309 C208.10100038 197.14272504 208.08051627 200.02977432 208.05322266 202.91796875 C208.06301147 204.18374001 208.06301147 204.18374001 208.07299805 205.4750824 C207.93771174 213.93698133 204.49949667 220.40846232 198.51977539 226.38818359 C193.04264702 229.99497986 188.27302239 230.9636376 181.80883789 230.84228516 C180.56350533 230.84316132 180.56350533 230.84316132 179.29301453 230.84405518 C176.5764943 230.84129096 173.8611015 230.81027915 171.14477539 230.77880859 C169.25049438 230.77134026 167.35620559 230.76565013 165.46191406 230.76165771 C160.49695177 230.74644801 155.53246394 230.70720673 150.56768799 230.6628418 C145.49318864 230.62178811 140.41861199 230.6036252 135.34399414 230.58349609 C125.40238042 230.54070769 115.46111749 230.47251328 105.51977539 230.38818359 C105.52976814 231.8494442 105.52976814 231.8494442 105.53996277 233.34022522 C105.60086444 242.53559886 105.64579146 251.73093141 105.67521191 260.92646122 C105.69084591 265.65361522 105.71204272 270.38060596 105.74609375 275.10766602 C105.77876811 279.67234838 105.79664545 284.23687403 105.80440712 288.80166435 C105.80993615 290.54033308 105.820733 292.27899355 105.83696556 294.01759529 C105.85884747 296.45910075 105.86173787 298.89996447 105.86035156 301.34155273 C105.87113739 302.05509415 105.88192322 302.76863556 105.89303589 303.50379944 C105.8518946 310.23107839 103.73748437 315.97008353 99.0982666 320.98110962 C89.56595704 329.47825209 77.64845275 328.1188965 65.67602539 328.05224609 C63.53950729 328.05561924 61.40299107 328.060476 59.26647949 328.06674194 C54.80140813 328.07408965 50.33683889 328.06347541 45.87182617 328.04003906 C40.1690295 328.01155306 34.46740964 328.02796828 28.76465607 328.05790138 C24.35662077 328.07603108 19.94886119 328.07019029 15.54081726 328.05726242 C13.43901935 328.05394409 11.33719582 328.05795966 9.23542786 328.06966019 C-13.30454973 328.16762454 -13.30454973 328.16762454 -21.38708496 320.60366821 C-26.75884191 315.03012566 -27.78326072 309.0333381 -27.70727539 301.45507812 C-27.70756744 300.68366989 -27.7078595 299.91226166 -27.7081604 299.11747742 C-27.70677472 296.5851998 -27.69124973 294.05322188 -27.67553711 291.52099609 C-27.67180426 289.75837362 -27.66895857 287.99574907 -27.66696167 286.23312378 C-27.65934659 281.60695611 -27.63971643 276.98091517 -27.61755371 272.35479736 C-27.59704942 267.62896438 -27.58795017 262.9031108 -27.57788086 258.17724609 C-27.55646847 248.91416976 -27.52235827 239.65118724 -27.48022461 230.38818359 C-28.48976196 230.39262482 -29.49929932 230.39706604 -30.53942871 230.40164185 C-40.07298413 230.44225955 -49.6065219 230.47220234 -59.14014435 230.49180794 C-64.04097614 230.50222633 -68.94173784 230.51634997 -73.8425293 230.5390625 C-78.5757872 230.56086028 -83.30897786 230.57276683 -88.0422821 230.57793808 C-89.84430499 230.5816214 -91.64632437 230.58881394 -93.44831848 230.59964371 C-95.98051792 230.61425088 -98.51244266 230.6161577 -101.04467773 230.61523438 C-102.15167526 230.6260202 -102.15167526 230.6260202 -103.28103638 230.63702393 C-110.8131036 230.60748131 -117.29219274 229.42249632 -122.94116211 224.17333984 C-128.44262701 217.79219908 -129.63054545 210.82255168 -129.64135742 202.63745117 C-129.64632233 201.74278137 -129.65128723 200.84811157 -129.65640259 199.92633057 C-129.67102556 196.96178419 -129.67782742 193.99729138 -129.68334961 191.03271484 C-129.68910215 188.97108458 -129.69485988 186.90945433 -129.70062256 184.8478241 C-129.71113376 180.52102408 -129.71697525 176.19424264 -129.72045898 171.86743164 C-129.72593561 166.33380662 -129.74994544 160.80042867 -129.77843094 155.26688099 C-129.79709459 151.00568434 -129.80226497 146.74454667 -129.80379486 142.48331261 C-129.80681488 140.4440444 -129.81482135 138.40477707 -129.82798004 136.36554909 C-129.84511389 133.50547384 -129.84314205 130.64599501 -129.83666992 127.78588867 C-129.8504921 126.53167366 -129.8504921 126.53167366 -129.86459351 125.25212097 C-129.80533499 116.85487803 -127.47375893 110.52110244 -121.48022461 104.38818359 C-115.05690475 99.46819392 -109.34837894 98.08310546 -101.36352539 98.16113281 C-100.17715233 98.16069473 -100.17715233 98.16069473 -98.96681213 98.1602478 C-96.36960631 98.16163386 -93.77269242 98.17716072 -91.17553711 98.19287109 C-89.3680741 98.1966038 -87.56060907 98.19944956 -85.75314331 98.20144653 C-81.00860962 98.20906269 -76.26419944 98.2286938 -71.51971436 98.25085449 C-66.67323477 98.27135645 -61.82673512 98.28045754 -56.98022461 98.29052734 C-47.48017051 98.31194164 -37.98020785 98.34605316 -28.48022461 98.38818359 C-28.49132767 97.42067169 -28.50243073 96.45315979 -28.51387024 95.45632935 C-28.61554803 86.30610791 -28.69033404 77.15600219 -28.73928547 68.00534248 C-28.76529879 63.30166062 -28.80054429 58.59843746 -28.85742188 53.89501953 C-28.91203854 49.34974582 -28.94170721 44.80491129 -28.95461082 40.25933456 C-28.96379781 38.53147348 -28.98173733 36.80363446 -29.00887489 35.07596207 C-29.1647176 24.73644465 -29.16941132 15.51693198 -21.72431946 7.49661255 C-15.27244029 1.3362898 -8.61931141 -0.06086785 0 0 Z M-8.19097805 20.68833351 C-10.38648157 23.58306828 -9.89236595 27.03743734 -9.86499023 30.52807617 C-9.87036301 31.35768356 -9.87573578 32.18729095 -9.88127136 33.04203796 C-9.8910579 34.84427879 -9.89399087 36.64656678 -9.89091492 38.44883156 C-9.88644256 41.30316813 -9.90042163 44.15688279 -9.91931152 47.01115417 C-9.95613387 53.07432039 -9.96980478 59.13742202 -9.98022461 65.20068359 C-9.99230455 72.21662915 -10.01388638 79.23227297 -10.06022644 86.24808311 C-10.07378818 89.05660752 -10.06962656 91.8647498 -10.06481934 94.67329407 C-10.07416288 96.40223677 -10.08433244 98.13117527 -10.09545898 99.86010742 C-10.08931076 100.63798615 -10.08316254 101.41586487 -10.076828 102.21731567 C-10.13080556 107.00481697 -10.8128353 110.38235968 -13.48022461 114.38818359 C-17.04213901 117.32744412 -21.74983834 116.67307705 -26.1484375 116.65942383 C-27.45881737 116.66726395 -27.45881737 116.66726395 -28.79566956 116.67526245 C-30.69012215 116.68549471 -32.5846028 116.69128151 -34.47908211 116.69314384 C-37.47540068 116.69680486 -40.47138751 116.71352277 -43.46763611 116.73390198 C-51.98552294 116.78935062 -60.50345807 116.82005198 -69.02148438 116.84448242 C-74.23276487 116.86033021 -79.44380837 116.89051612 -84.65496635 116.9292469 C-86.64250619 116.94091779 -88.63008834 116.94682743 -90.61766243 116.94692802 C-93.39249664 116.94711943 -96.16667376 116.96533699 -98.94140625 116.98754883 C-99.76590271 116.98297165 -100.59039917 116.97839447 -101.43988037 116.97367859 C-105.58214397 116.9247504 -105.58214397 116.9247504 -109.1904068 118.68259621 C-111.41602985 121.62564334 -110.90409589 125.19588871 -110.88427734 128.7434082 C-110.89114059 129.59573532 -110.89800385 130.44806244 -110.90507507 131.32621765 C-110.92339842 134.14782298 -110.91949766 136.9688752 -110.91381836 139.79052734 C-110.91837762 141.74964073 -110.92368242 143.7087525 -110.92970276 145.66786194 C-110.93864482 149.77611788 -110.93619841 153.88417955 -110.92626953 157.99243164 C-110.9147805 163.2597969 -110.93498483 168.52649173 -110.96418667 173.79376888 C-110.98252457 177.84038053 -110.98226099 181.88683082 -110.97654915 185.93347359 C-110.97639563 187.8755646 -110.98246531 189.81766635 -110.99484062 191.75971794 C-111.00970278 194.47476231 -110.99910896 197.18855938 -110.98193359 199.90356445 C-110.99160156 200.70733521 -111.00126953 201.51110596 -111.01123047 202.3392334 C-110.96702775 205.67263454 -110.71026351 208.00080324 -108.99438477 210.89030457 C-105.33733591 213.0690905 -101.88333372 212.9109406 -97.75195312 212.83886719 C-96.43176178 212.83991707 -96.43176178 212.83991707 -95.0848999 212.84098816 C-93.1756777 212.84027128 -91.26644248 212.83055718 -89.35730171 212.81290817 C-86.33504717 212.78640994 -83.31383886 212.78632301 -80.29148865 212.79360962 C-71.69985535 212.80927908 -63.10858545 212.77487249 -54.51708984 212.72802734 C-49.2603315 212.70118939 -44.00420038 212.70330666 -38.74741936 212.72249222 C-36.74473306 212.7235748 -34.74200596 212.71310464 -32.73944283 212.69086838 C-29.93821653 212.6598639 -27.13920624 212.66535504 -24.33789062 212.67871094 C-23.51123398 212.66020584 -22.68457733 212.64170074 -21.83287048 212.62263489 C-17.47743476 212.68444353 -15.92369169 213.01797562 -12.46386719 215.90625 C-9.8996288 219.61820546 -9.79892699 223.41819554 -9.88427734 227.80859375 C-9.88021881 228.63209824 -9.87616028 229.45560272 -9.87197876 230.30406189 C-9.86647811 232.0833602 -9.87242327 233.86272341 -9.88863945 235.64195633 C-9.9141001 238.45841242 -9.90924955 241.27340811 -9.89674377 244.0899353 C-9.8760233 250.06451296 -9.89567787 256.0386359 -9.91772461 262.01318359 C-9.93882681 268.94456075 -9.94342757 275.87546814 -9.91722298 282.80683517 C-9.91385888 285.58132516 -9.93509141 288.35491936 -9.95762634 291.12930298 C-9.95511553 292.82839148 -9.95155594 294.52747886 -9.94677734 296.2265625 C-9.95966293 296.9975679 -9.97254852 297.7685733 -9.98582458 298.5629425 C-9.95511745 301.83262762 -9.68759645 304.04429269 -7.98609924 306.86593628 C-4.38595174 309.05292313 -1.00835393 308.94655487 3.08032227 308.90576172 C3.94254898 308.912771 4.8047757 308.91978027 5.69313049 308.92700195 C8.54192352 308.94460048 11.38972235 308.93295271 14.23852539 308.91943359 C16.21862987 308.92212798 18.19873306 308.92600995 20.17883301 308.93103027 C24.32825317 308.93692784 28.47732886 308.92835397 32.62670898 308.90966797 C37.94675872 308.88687837 43.26600131 308.90000005 48.58602142 308.92395782 C52.6746835 308.93840876 56.76315407 308.93381303 60.8518219 308.92344666 C62.81344193 308.92077743 64.77507932 308.92405601 66.73667908 308.93336487 C69.47799769 308.94351882 72.21800745 308.92804586 74.95922852 308.90576172 C76.17655418 308.9179071 76.17655418 308.9179071 77.41847229 308.93029785 C80.78450157 308.87957975 83.12029822 308.62978184 86.02565002 306.87266541 C88.14380955 303.35051865 88.05205775 300.10752108 87.98632812 296.11889648 C87.98863434 295.28753677 87.99094055 294.45617706 87.99331665 293.59962463 C87.99594449 291.79682151 87.98950832 289.99398749 87.97506523 288.19124031 C87.95318633 285.33699134 87.95689285 282.48380264 87.96754456 279.62950134 C87.98921968 272.54114137 87.97184055 265.45301653 87.94604492 258.36468506 C87.92464886 252.37438251 87.92268897 246.38475935 87.94896126 240.39446831 C87.95331404 237.58391732 87.92866732 234.77454433 87.90342712 231.96412659 C87.90869833 230.23836745 87.91542109 228.51261194 87.92382812 226.78686523 C87.9089183 226.00696228 87.89400848 225.22705933 87.87864685 224.42352295 C87.92793388 220.6663531 88.41205503 218.55042703 90.50341797 215.4005127 C94.58578776 212.67700537 97.57202376 212.70556441 102.37744141 212.79223633 C103.25932129 212.7881778 104.14120117 212.78411926 105.04980469 212.77993774 C106.95953445 212.77442774 108.86932452 212.7804087 110.77899361 212.79659843 C113.80116973 212.82200846 116.82198139 212.8172244 119.84422302 212.80470276 C126.25705723 212.7839562 132.66946899 212.80364728 139.08227539 212.82568359 C146.51713157 212.84677617 153.9515497 212.85139141 161.38639641 212.82518196 C164.36472483 212.82181572 167.34222034 212.84306024 170.32044983 212.86558533 C172.14413638 212.86307452 173.96782189 212.85951495 175.79150391 212.85473633 C176.62018478 212.86762192 177.44886566 212.88050751 178.30265808 212.89378357 C181.70458408 212.86400623 184.08760039 212.6470929 187.03294373 210.88258362 C189.1504796 207.33007551 189.07838473 204.02899749 189.03735352 200.01123047 C189.04436279 199.16851089 189.05137207 198.32579132 189.05859375 197.45753479 C189.07618984 194.67366524 189.06454548 191.89081337 189.05102539 189.10693359 C189.05371985 187.17166956 189.05760188 185.23640685 189.06262207 183.30114746 C189.0685193 179.24588121 189.05994689 175.19096746 189.04125977 171.13574219 C189.01847013 165.93675428 189.031592 160.73859231 189.05554962 155.5396347 C189.07000149 151.54361748 189.06540441 147.54779618 189.05503845 143.55177307 C189.05236948 141.63481041 189.05564691 139.71782998 189.06495667 137.80088806 C189.07511221 135.12182476 189.05963566 132.44410025 189.03735352 129.76513672 C189.0494989 128.57586327 189.0494989 128.57586327 189.06188965 127.36256409 C189.01085234 124.05149589 188.74136239 121.75835533 187.02720642 118.89477539 C183.4017035 116.71638927 179.98860208 116.84906953 175.88330078 116.90576172 C175.01292679 116.90184921 174.1425528 116.89793671 173.24580383 116.89390564 C171.35789272 116.88793203 169.46993557 116.89109818 167.58204842 116.90232849 C164.59339484 116.91957228 161.60571011 116.9120925 158.61705017 116.89807129 C151.19482328 116.86840169 143.77278069 116.88161478 136.3505249 116.89324951 C130.07845165 116.90144985 123.80680118 116.89352701 117.53478813 116.86412048 C114.59145246 116.85702168 111.64885881 116.87371086 108.70558167 116.89123535 C106.89893188 116.88552759 105.09228515 116.87871036 103.28564453 116.87060547 C102.46833862 116.88192001 101.65103271 116.89323456 100.80895996 116.90489197 C96.84674749 116.86240408 94.96091521 116.66970281 91.53440857 114.48303223 C87.88494701 110.68826222 88.37462008 107.24629024 88.37792969 102.23828125 C88.37445526 101.39585373 88.37098083 100.55342621 88.36740112 99.68547058 C88.36003924 97.85263354 88.35469617 96.01978756 88.35111046 94.18693924 C88.34395697 91.28718032 88.32829924 88.3875918 88.30976868 85.48788452 C88.25724343 77.24210942 88.20930547 68.99642712 88.19384766 60.75048828 C88.18377804 55.71001016 88.15447963 50.66995952 88.11252785 45.62965012 C88.10019828 43.70713913 88.09510015 41.78456782 88.09732628 39.86201859 C88.0996737 37.17317176 88.07755621 34.48555574 88.04980469 31.796875 C88.0564061 31.00088394 88.06300751 30.20489288 88.06980896 29.38478088 C88.01353764 26.06906865 87.74367463 23.76263719 86.02841187 20.89399719 C82.39540726 18.71327958 78.96543602 18.83811699 74.8515625 18.88647461 C73.97797592 18.88107162 73.10438934 18.87566864 72.20433044 18.87010193 C69.31824819 18.85759971 66.43316048 18.87411418 63.54711914 18.89208984 C61.54220019 18.8919349 59.53728094 18.89044677 57.53236389 18.88768005 C53.33166251 18.88629544 49.13130231 18.89886582 44.93066406 18.92163086 C39.54111778 18.95003386 34.1521377 18.94727399 28.7625494 18.93454075 C24.62332811 18.92759286 20.48423817 18.93536237 16.34503365 18.94779778 C14.35747341 18.95231964 12.36989911 18.95264268 10.38233757 18.94873238 C7.60746112 18.94582842 4.83337095 18.96228727 2.05859375 18.98413086 C1.23409729 18.97962921 0.40960083 18.97512756 -0.43988037 18.9704895 C-4.58445839 18.92304555 -4.58445839 18.92304555 -8.19097805 20.68833351 Z " fill="#053176" transform="translate(559.480224609375,248.61181640625)"/>
<path d="M0 0 C3.89137643 0.33546349 4.90528469 0.6564203 7.625 3.3125 C8.6105957 5.86743164 8.6105957 5.86743164 9.30078125 8.97265625 C9.56761719 10.14103027 9.83445312 11.3094043 10.109375 12.51318359 C10.51929688 14.42478271 10.51929688 14.42478271 10.9375 16.375 C11.23721313 17.7198023 11.53801688 19.06436194 11.83984375 20.40869141 C14.35932423 31.72318649 16.68592604 43.08150353 18.98828125 54.44189453 C21.30959915 65.88766541 23.77695402 77.29751413 26.31640625 88.69677734 C27.7475137 95.15448096 29.09357238 101.60372814 30.2019043 108.12524414 C30.60767923 110.47770789 30.60767923 110.47770789 31.625 113.3125 C35.08508406 102.90162761 37.94138886 92.4142243 40.48095703 81.74023438 C44.07200348 66.86549652 44.07200348 66.86549652 47.625 63.3125 C50.25 62.6875 50.25 62.6875 53.625 63.3125 C57.58221235 66.44109841 60.90443704 69.97627679 63.30029297 74.41918945 C65.35207138 76.85536363 66.48817609 77.28865813 69.67619324 77.84417725 C73.00484882 77.99004347 76.29503083 78.0364476 79.62471199 77.97924995 C81.87429723 77.94095271 84.12133187 77.93935261 86.37120056 77.94700623 C91.14370209 77.95631918 95.91522252 77.9174309 100.6875 77.875 C106.22249737 77.83027219 111.75663075 77.8053258 117.29180717 77.81956291 C119.50605181 77.8164472 121.7184557 77.78273264 123.93238831 77.74745178 C125.29094398 77.74633012 126.64950163 77.74653854 128.00805664 77.74829102 C129.19210587 77.73685562 130.37615509 77.72542023 131.59608459 77.71363831 C134.625 78.3125 134.625 78.3125 137.01121521 80.68760681 C138.82441899 83.63686391 139.23304261 84.92483402 138.625 88.3125 C137.53755188 90.4315033 137.53755188 90.4315033 135.625 92.3125 C132.49528503 92.8271637 132.49528503 92.8271637 128.58666992 92.84594727 C127.87410538 92.85456284 127.16154083 92.86317841 126.42738342 92.87205505 C124.06970976 92.89477282 121.71321967 92.88796423 119.35546875 92.87890625 C117.71502834 92.88414084 116.07459096 92.89041672 114.43415833 92.89768982 C110.9933152 92.90810584 107.55288527 92.90351793 104.11206055 92.88891602 C99.71007433 92.8717616 95.30939746 92.8951744 90.90755749 92.93040562 C87.51792303 92.9524114 84.12860002 92.95092996 80.7389164 92.9426403 C79.11665731 92.94182183 77.49437512 92.94866551 75.87218285 92.96341133 C73.59781999 92.9809093 71.32578459 92.96627364 69.05151367 92.94360352 C67.75928391 92.94264175 66.46705414 92.94167999 65.13566589 92.94068909 C60.53074364 92.11669672 58.87207113 90.62322731 55.625 87.3125 C55.625 86.6525 55.625 85.9925 55.625 85.3125 C54.965 85.3125 54.305 85.3125 53.625 85.3125 C53.55023437 85.93511719 53.47546875 86.55773437 53.3984375 87.19921875 C51.99460853 97.06731063 49.13467454 106.46787776 46.30688477 116.00561523 C45.39166779 119.10188635 44.51065581 122.2076534 43.625 125.3125 C42.49739048 129.25551686 41.34761882 133.19143362 40.1875 137.125 C39.88779297 138.17365234 39.58808594 139.22230469 39.27929688 140.30273438 C38.98216797 141.30240234 38.68503906 142.30207031 38.37890625 143.33203125 C38.11408447 144.24057861 37.8492627 145.14912598 37.57641602 146.08520508 C36.625 148.3125 36.625 148.3125 33.625 150.3125 C30.625 150.75 30.625 150.75 27.625 150.3125 C24.36426356 146.13676099 23.36832313 141.29385683 22.125 136.25 C21.80136475 134.97310303 21.80136475 134.97310303 21.47119141 133.67041016 C21.0429956 131.97786425 20.61793908 130.2845205 20.19628906 128.59033203 C19.7275794 126.72150249 19.23780977 124.85796677 18.7421875 122.99609375 C16.84546911 115.81851206 15.56839247 108.57999867 14.31640625 101.26953125 C13.57388227 93.72567123 13.57388227 93.72567123 10.625 87.3125 C10.19153284 84.87697588 9.80479274 82.44578136 9.4375 80 C7.90544495 70.20546284 5.79105358 60.55305846 3.60668945 50.88549805 C3.35105225 49.73218994 3.09541504 48.57888184 2.83203125 47.390625 C2.5997583 46.36356445 2.36748535 45.33650391 2.12817383 44.27832031 C1.61148244 41.23282447 1.53623698 38.39536317 1.625 35.3125 C0.965 35.3125 0.305 35.3125 -0.375 35.3125 C-0.53548828 37.16681641 -0.53548828 37.16681641 -0.69921875 39.05859375 C-1.35707321 44.95624173 -2.75692569 50.62411767 -4.1875 56.375 C-4.45667236 57.47175049 -4.72584473 58.56850098 -5.00317383 59.69848633 C-5.54184966 61.89036746 -6.08273291 64.08170744 -6.62597656 66.27246094 C-7.28358519 68.94147746 -7.92430009 71.61351664 -8.5546875 74.2890625 C-8.89047625 75.69274393 -9.22640114 77.0963928 -9.5625 78.5 C-9.98595703 80.28470703 -9.98595703 80.28470703 -10.41796875 82.10546875 C-11.4122077 85.43718375 -12.64649354 88.29766316 -14.375 91.3125 C-17.56874864 92.90937432 -21.03242986 92.46874037 -24.54077148 92.47363281 C-25.3848053 92.47859772 -26.22883911 92.48356262 -27.09844971 92.48867798 C-29.8976726 92.5033139 -32.69683885 92.51010343 -35.49609375 92.515625 C-37.43660993 92.52137459 -39.37712608 92.52713235 -41.31764221 92.53289795 C-45.38892889 92.54341154 -49.46019579 92.54925209 -53.53149414 92.55273438 C-58.7551286 92.55822459 -63.97850311 92.58226236 -69.20205593 92.61070633 C-73.2108487 92.62930342 -77.21957845 92.63453671 -81.22841072 92.63607025 C-83.15458665 92.63910316 -85.08076131 92.64715306 -87.00689507 92.66025543 C-89.69807777 92.67725739 -92.38861978 92.67545032 -95.07983398 92.66894531 C-95.87942032 92.6781601 -96.67900665 92.68737488 -97.50282288 92.6968689 C-102.88630934 92.65598128 -102.88630934 92.65598128 -105.36854553 90.91131592 C-106.62194015 88.92022011 -106.77664269 87.65705682 -106.75 85.3125 C-106.75773437 84.631875 -106.76546875 83.95125 -106.7734375 83.25 C-106.22747955 80.59514563 -105.59334296 79.9010023 -103.375 78.3125 C-100.73351269 78.03204444 -98.33069896 77.93330198 -95.69067383 77.97192383 C-94.51958824 77.97126671 -94.51958824 77.97126671 -93.32484436 77.97059631 C-90.74365247 77.97268676 -88.1631097 77.9960294 -85.58203125 78.01953125 C-83.79270279 78.02512631 -82.00336973 78.02939683 -80.21403503 78.03239441 C-75.50390948 78.04385032 -70.79406134 78.07332389 -66.08404541 78.10650635 C-61.27807366 78.13719117 -56.47205709 78.15089635 -51.66601562 78.16601562 C-42.23555518 78.1981929 -32.80530066 78.24939825 -23.375 78.3125 C-23.31844742 77.65447891 -23.26189484 76.99645782 -23.20362854 76.3184967 C-22.77951836 71.69909297 -22.31020023 67.28224513 -21.02734375 62.80859375 C-20.75559326 61.83639893 -20.48384277 60.8642041 -20.20385742 59.86254883 C-19.90970947 58.83540771 -19.61556152 57.8082666 -19.3125 56.75 C-15.95114 44.67413445 -12.94927446 32.53475678 -10.04077148 20.34350586 C-9.87772522 19.66192413 -9.71467896 18.98034241 -9.54669189 18.27810669 C-9.10441006 16.42713352 -8.66477865 14.57552761 -8.2253418 12.72387695 C-5.17310263 0.47899098 -5.17310263 0.47899098 0 0 Z " fill="#E32E30" transform="translate(583.375,337.6875)"/>
<path d="M0 0 C6.39198102 3.66445817 11.40196998 8.8986541 13.625 16 C14.6672075 24.67838167 14.28465672 32.1305348 9.5390625 39.6875 C4.95772399 45.22250489 -1.75416972 49.32568529 -8.91796875 50.37109375 C-17.12503949 50.57717972 -23.23906472 48.65302005 -29.44921875 43.16796875 C-36.0638141 36.13736111 -37.98420252 29.48381421 -37.73046875 19.90234375 C-37.20761219 15.63330616 -35.75507144 12.53705061 -33.375 9 C-32.7975 8.113125 -32.22 7.22625 -31.625 6.3125 C-23.25266952 -2.29239521 -11.1453554 -5.10186776 0 0 Z " fill="#E32B2D" transform="translate(798.375,255)"/>
<path d="M0 0 C2.87029869 1.79393668 4.49131638 2.98263276 6 6 C6.54724071 11.69130337 5.59333707 14.56117185 2 19 C-1.20613847 20.60306924 -4.52139997 20.48740461 -8 20 C-11.4431146 17.90419111 -13.7468218 15.8734599 -15 12 C-15.50046695 8.07967553 -15.34198493 6.51297739 -13.125 3.1875 C-9.27890776 -0.7717126 -5.29438206 -0.68580079 0 0 Z " fill="#FAF5F6" transform="translate(791,269)"/>
<path d="M0 0 C-0.99 0 -1.98 0 -3 0 C-3 0.66 -3 1.32 -3 2 C-16.74555012 5.10843111 -30.01494135 5.36190164 -44.0625 5.1875 C-46.20116234 5.17241043 -48.33983511 5.15872966 -50.47851562 5.14648438 C-55.65260722 5.1138531 -60.82618424 5.06231203 -66 5 C-66 4.67 -66 4.34 -66 4 C-61.83353321 3.8280738 -57.66684043 3.6626151 -53.5 3.5 C-52.26870361 3.45157959 -51.03740723 3.40315918 -49.76879883 3.35327148 C-41.8769853 3.05944666 -34.03026786 2.94306194 -26.13671875 3.16015625 C-22.76385398 2.98794273 -20.16683016 2.12627851 -17 1 C-14.66666667 1 -12.33333333 1 -10 1 C-8.948125 0.649375 -7.89625 0.29875 -6.8125 -0.0625 C-3.92239738 -1.02586754 -2.7856106 -1.07138869 0 0 Z " fill="#355386" transform="translate(642,640)"/>
<path d="M0 0 C0.66 0 1.32 0 2 0 C2.23437162 2.81245946 2.20208777 4.59359683 0.93412781 7.14349365 C-1.95495437 9.91662963 -4.18454811 9.48091988 -8.13354492 9.45410156 C-9.21684837 9.45497772 -9.21684837 9.45497772 -10.32203674 9.45587158 C-12.70867009 9.45308527 -15.09405369 9.42196973 -17.48046875 9.390625 C-19.1352724 9.3831645 -20.79008488 9.37747067 -22.44490051 9.37347412 C-26.80004272 9.3582026 -31.15465118 9.31890814 -35.50958252 9.2746582 C-39.95358052 9.23373797 -44.39766478 9.21547008 -48.84179688 9.1953125 C-57.56144284 9.15241496 -66.28065502 9.08414579 -75 9 C-75 8.67 -75 8.34 -75 8 C-39.36 7.505 -39.36 7.505 -3 7 C-2.01 4.69 -1.02 2.38 0 0 Z " fill="#D74344" transform="translate(720,421)"/>
<path d="M0 0 C1.03626274 -0.00287018 1.03626274 -0.00287018 2.09346008 -0.00579834 C3.55864831 -0.00716062 5.02384858 -0.00346114 6.48901367 0.00488281 C8.71236003 0.0155012 10.93488333 0.00503192 13.15820312 -0.0078125 C14.58463718 -0.00648932 16.01107073 -0.00392367 17.4375 0 C18.72873779 0.00225586 20.01997559 0.00451172 21.3503418 0.00683594 C25.26031024 0.28027834 28.3422086 1.05967274 32.05078125 2.265625 C32.05078125 2.595625 32.05078125 2.925625 32.05078125 3.265625 C11.75578125 2.770625 11.75578125 2.770625 -8.94921875 2.265625 C-6.07284446 -0.61074929 -4.02116244 0.007056 0 0 Z " fill="#12346D" transform="translate(588.94921875,169.734375)"/>
<path d="M0 0 C0.33 0 0.66 0 1 0 C1.12117188 1.01578125 1.24234375 2.0315625 1.3671875 3.078125 C2.27188496 10.5432443 3.25524162 17.95506654 4.6328125 25.3515625 C5.03642922 28.26275546 5.06025696 31.06462508 5 34 C4.01 34.495 4.01 34.495 3 35 C-2.29346486 9.3649815 -2.29346486 9.3649815 0 0 Z " fill="#203E71" transform="translate(383,425)"/>
<path d="M0 0 C0.66 0 1.32 0 2 0 C1.73705179 5.34661355 1.73705179 5.34661355 1 8 C-1.4375 9.8125 -1.4375 9.8125 -4 11 C-6.18994248 14.28491373 -6.35277339 15.83095639 -6.625 19.6875 C-6.69976563 20.68136719 -6.77453125 21.67523438 -6.8515625 22.69921875 C-6.90054688 23.45847656 -6.94953125 24.21773438 -7 25 C-7.33 25 -7.66 25 -8 25 C-8.57956271 15.34062144 -7.40915506 9.81292479 -1.875 2 C-1.25625 1.34 -0.6375 0.68 0 0 Z " fill="#DC4047" transform="translate(769,259)"/>
<path d="M0 0 C0.66 0 1.32 0 2 0 C1.5244363 5.23120073 0.52364424 9.67531545 -1.234375 14.61328125 C-2.53271485 18.66065701 -3.25831591 22.82039201 -4 27 C-4.33 27 -4.66 27 -5 27 C-5.93384391 17.20501495 -3.19666604 9.09908155 0 0 Z " fill="#183469" transform="translate(391,341)"/>
<path d="M0 0 C0.66 0.66 1.32 1.32 2 2 C-0.22523041 3.94218351 -2.45492465 5.87879088 -4.6875 7.8125 C-5.31333984 8.35970703 -5.93917969 8.90691406 -6.58398438 9.47070312 C-9.90564718 12.34020241 -13.12444393 14.8880813 -17 17 C-16.73911731 13.47808373 -15.75685408 12.78724732 -13 10.375 C-11.515 9.199375 -11.515 9.199375 -10 8 C-9.67 7.34 -9.34 6.68 -9 6 C-8.01 5.690625 -7.02 5.38125 -6 5.0625 C-4.515 4.5365625 -4.515 4.5365625 -3 4 C-2.67 3.01 -2.34 2.02 -2 1 C-1.34 0.67 -0.68 0.34 0 0 Z " fill="#1C3E7B" transform="translate(752,583)"/>
<path d="M0 0 C0.33 0.99 0.66 1.98 1 3 C0.2575 3.350625 -0.485 3.70125 -1.25 4.0625 C-8.20382116 8.96178309 -9.29774429 17.14641116 -11 25 C-11.33 25 -11.66 25 -12 25 C-12.42084786 17.1441733 -10.80018517 10.40024689 -6 4 C-2.8125 1.6875 -2.8125 1.6875 0 0 Z " fill="#153876" transform="translate(812,341)"/>
<path d="M0 0 C3.06484076 3.86923419 5.59289853 8.06014427 8.1875 12.25 C8.65091797 12.99507812 9.11433594 13.74015625 9.59179688 14.5078125 C10.72950232 16.33752435 11.86497348 18.16862513 13 20 C12.34 20.66 11.68 21.32 11 22 C8.95854563 19.09727222 6.94565193 16.17584371 4.9375 13.25 C4.35677734 12.425 3.77605469 11.6 3.17773438 10.75 C2.36079102 9.55117188 2.36079102 9.55117188 1.52734375 8.328125 C0.76538696 7.22839355 0.76538696 7.22839355 -0.01196289 6.10644531 C-1 4 -1 4 -0.65795898 1.72949219 C-0.44083252 1.15875977 -0.22370605 0.58802734 0 0 Z " fill="#193A70" transform="translate(409,514)"/>
<path d="M0 0 C3.06255961 -0.0270491 6.1248786 -0.04686298 9.1875 -0.0625 C10.05181641 -0.07087891 10.91613281 -0.07925781 11.80664062 -0.08789062 C16.00286769 -0.10396812 19.90936886 -0.07559038 24 1 C24.33 1.99 24.66 2.98 25 4 C22.33328914 3.68787361 19.66663095 3.37530779 17 3.0625 C16.25621094 2.97548828 15.51242187 2.88847656 14.74609375 2.79882812 C9.82778708 2.22146169 4.91315228 1.61972716 0 1 C0 0.67 0 0.34 0 0 Z " fill="#294B7B" transform="translate(615,189)"/>
<path d="M0 0 C0.66 0.33 1.32 0.66 2 1 C-0.97 6.28 -3.94 11.56 -7 17 C-7.66 16.67 -8.32 16.34 -9 16 C-8.67 15.01 -8.34 14.02 -8 13 C-7.34 13 -6.68 13 -6 13 C-5.896875 12.29875 -5.79375 11.5975 -5.6875 10.875 C-4.67214692 6.62897801 -3.10117285 3.10117285 0 0 Z " fill="#14336D" transform="translate(868,409)"/>
<path d="M0 0 C-1.61674681 3.42946293 -3.57597677 6.56263052 -5.625 9.75 C-6.57246094 11.22726562 -6.57246094 11.22726562 -7.5390625 12.734375 C-8.02117187 13.48203125 -8.50328125 14.2296875 -9 15 C-9.66 14.01 -10.32 13.02 -11 12 C-4.64705882 0 -4.64705882 0 0 0 Z " fill="#163772" transform="translate(427,275)"/>
<path d="M0 0 C1.1328125 1.71484375 1.1328125 1.71484375 2 4 C1.2421875 6.25390625 1.2421875 6.25390625 -0.125 8.5625 C-0.56070312 9.32691406 -0.99640625 10.09132813 -1.4453125 10.87890625 C-3.07685036 13.10484861 -4.71981988 14.46846271 -7 16 C-5.35433477 10.31497465 -2.70967216 5.23318364 0 0 Z " fill="#1D3E76" transform="translate(392,294)"/>
<path d="M0 0 C0.66 0 1.32 0 2 0 C0.40956621 5.08938811 -2.7446951 8.87456643 -6 13 C-6.66 12.01 -7.32 11.02 -8 10 C-6.85500893 8.52018126 -5.708983 7.04116318 -4.5625 5.5625 C-3.60537109 4.32693359 -3.60537109 4.32693359 -2.62890625 3.06640625 C-1 1 -1 1 0 0 Z " fill="#163672" transform="translate(789,540)"/>
<path d="M0 0 C0.33 0 0.66 0 1 0 C1.373822 3.2709425 1.19478728 4.70032727 -0.625 7.5 C-3.26367976 10.27755765 -6.00321606 12.6161946 -9 15 C-9.66 14.67 -10.32 14.34 -11 14 C-10.54109375 13.49210938 -10.0821875 12.98421875 -9.609375 12.4609375 C-6.75041736 9.25361948 -3.96014375 6.11514846 -1.625 2.5 C-1.08875 1.675 -0.5525 0.85 0 0 Z " fill="#193A78" transform="translate(771,535)"/>
<path d="M0 0 C0.66 0 1.32 0 2 0 C0.68 5.28 -0.64 10.56 -2 16 C-2.33 16 -2.66 16 -3 16 C-3.37952295 9.80112515 -2.8352113 5.5522888 0 0 Z " fill="#203C70" transform="translate(818,477)"/>
<path d="M0 0 C0 3.59947819 -0.83412607 4.25100617 -3 7 C-3.69580267 8.31836295 -4.37224433 9.64791086 -5 11 C-5.66 11 -6.32 11 -7 11 C-7 11.66 -7 12.32 -7 13 C-7.66 13 -8.32 13 -9 13 C-7.63550416 7.79010681 -5.60150156 4.87161418 -2 1 C-1.34 0.67 -0.68 0.34 0 0 Z " fill="#183D7B" transform="translate(440,352)"/>
<path d="M0 0 C2.48862878 3.23521742 4.75421558 6.59260295 7 10 C6.01 10.33 5.02 10.66 4 11 C2.99421411 9.71283353 1.99553202 8.42011342 1 7.125 C0.443125 6.40570313 -0.11375 5.68640625 -0.6875 4.9453125 C-2 3 -2 3 -2 1 C-1.34 0.67 -0.68 0.34 0 0 Z " fill="#123A7C" transform="translate(434,463)"/>
<path d="M0 0 C0.66 0 1.32 0 2 0 C2.33 3.3 2.66 6.6 3 10 C1.68 10 0.36 10 -1 10 C-1.33 10.99 -1.66 11.98 -2 13 C-1.39174965 8.65535464 -0.73832608 4.32448133 0 0 Z " fill="#E8D1D2" transform="translate(583,373)"/>
<path d="M0 0 C-1.44424635 3.23861303 -3.25772247 5.61969163 -5.625 8.25 C-6.25664062 8.95640625 -6.88828125 9.6628125 -7.5390625 10.390625 C-8.02117187 10.92171875 -8.50328125 11.4528125 -9 12 C-9.703125 10.265625 -9.703125 10.265625 -10 8 C-8.671875 5.859375 -8.671875 5.859375 -6.75 3.75 C-6.12609375 3.04359375 -5.5021875 2.3371875 -4.859375 1.609375 C-3 0 -3 0 0 0 Z " fill="#21407D" transform="translate(442,257)"/>
<path d="M0 0 C0.66 0.66 1.32 1.32 2 2 C-2.29 6.62 -6.58 11.24 -11 16 C-11.66 15.67 -12.32 15.34 -13 15 C-12.22914063 14.16855469 -11.45828125 13.33710937 -10.6640625 12.48046875 C-9.6509335 11.38291233 -8.63791863 10.28525056 -7.625 9.1875 C-7.11710938 8.64029297 -6.60921875 8.09308594 -6.0859375 7.52929688 C-3.84783697 5.09977985 -1.83620888 2.75431332 0 0 Z " fill="#E5E5E4" transform="translate(777,559)"/>
<path d="M0 0 C0.66 0.33 1.32 0.66 2 1 C0.74054645 2.67528263 -0.53293682 4.34002614 -1.8125 6 C-2.87404297 7.3921875 -2.87404297 7.3921875 -3.95703125 8.8125 C-4.63121094 9.534375 -5.30539062 10.25625 -6 11 C-6.99 11 -7.98 11 -9 11 C-7.625 8.5 -7.625 8.5 -6 6 C-5.34 6 -4.68 6 -4 6 C-3.71125 5.38125 -3.4225 4.7625 -3.125 4.125 C-2 2 -2 2 0 0 Z " fill="#15387A" transform="translate(779,554)"/>
<path d="M0 0 C4.05780213 -0.47183746 5.56195324 -0.33329645 8.875 2.1875 C11 5 11 5 11.3125 7.8125 C11.1578125 8.8953125 11.1578125 8.8953125 11 10 C10.67 9.01 10.34 8.02 10 7 C7.99983534 5.79117904 7.99983534 5.79117904 6 5 C6 4.34 6 3.68 6 3 C5.01 2.67 4.02 2.34 3 2 C2.01 1.34 1.02 0.68 0 0 Z " fill="#11336F" transform="translate(538,461)"/>
<path d="M0 0 C0.66 0 1.32 0 2 0 C0.23570801 4.97209562 -2.3939166 9.43438061 -5 14 C-5.66 13.01 -6.32 12.02 -7 11 C-6.01 10.67 -5.02 10.34 -4 10 C-4.33 9.01 -4.66 8.02 -5 7 C-4.07421875 5.17578125 -4.07421875 5.17578125 -2.6875 3.3125 C-2.01267578 2.37857422 -2.01267578 2.37857422 -1.32421875 1.42578125 C-0.88722656 0.95527344 -0.45023437 0.48476563 0 0 Z " fill="#1B3B77" transform="translate(414,291)"/>
<path d="M0 0 C0.66 0.99 1.32 1.98 2 3 C1.43224464 4.29858939 0.84508337 5.58870441 0.25 6.875 C-0.07484375 7.59429687 -0.3996875 8.31359375 -0.734375 9.0546875 C-2.21929686 11.3370674 -3.50415408 12.00375898 -6 13 C-4.58707905 8.1725201 -2.57025846 4.2837641 0 0 Z " fill="#183873" transform="translate(854,403)"/>
<path d="M0 0 C0.66 0.33 1.32 0.66 2 1 C0.42617053 2.65492374 -1.15942902 4.29866024 -2.75 5.9375 C-3.63171875 6.85402344 -4.5134375 7.77054688 -5.421875 8.71484375 C-7.80176695 10.82429343 -8.9099375 11.66067071 -12 12 C-8.39424999 7.41086363 -4.52615993 3.67832017 0 0 Z " fill="#1E3E77" transform="translate(449,224)"/>
<path d="M0 0 C0.66 0 1.32 0 2 0 C1.71561048 1.89693861 1.42216208 3.79252027 1.125 5.6875 C0.88136719 7.27111328 0.88136719 7.27111328 0.6328125 8.88671875 C0.04106931 11.79794914 -0.8031806 14.28955607 -2 17 C-2.33 17 -2.66 17 -3 17 C-2.54775239 11.08507728 -1.8417395 5.64800112 0 0 Z " fill="#D75A5D" transform="translate(628,450)"/>
<path d="M0 0 C0.33 0 0.66 0 1 0 C1 1.65 1 3.3 1 5 C1.99 5 2.98 5 4 5 C4 6.98 4 8.96 4 11 C3.67 10.01 3.34 9.02 3 8 C2.01 8.99 1.02 9.98 0 11 C-0.99 10.67 -1.98 10.34 -3 10 C-2.34 9.01 -1.68 8.02 -1 7 C-0.60612212 4.67612053 -0.26513915 2.34206251 0 0 Z " fill="#E1E4E5" transform="translate(845,348)"/>
<path d="M0 0 C2.96404505 2.80804268 5.44499019 5.18315774 7 9 C6.01 9.66 5.02 10.32 4 11 C2.03698408 7.49461443 1.04097612 3.86648272 0 0 Z " fill="#1B407A" transform="translate(764,239)"/>
<path d="M0 0 C1.43655854 -0.08131463 2.8744483 -0.13933559 4.3125 -0.1875 C5.51326172 -0.23970703 5.51326172 -0.23970703 6.73828125 -0.29296875 C9.47851584 0.06198392 10.29171079 0.89366282 12 3 C11.67 3.99 11.34 4.98 11 6 C7.37 4.35 3.74 2.7 0 1 C0 0.67 0 0.34 0 0 Z " fill="#153E7C" transform="translate(689,209)"/>
<path d="M0 0 C2 3 2 3 1.875 6.375 C0.94025688 10.24750721 -0.3022778 12.12823121 -3 15 C-2.35812082 9.86496656 -1.31727753 5.0056546 0 0 Z " fill="#264578" transform="translate(373,340)"/>
<path d="M0 0 C0.99 0.33 1.98 0.66 3 1 C2.319375 2.0828125 2.319375 2.0828125 1.625 3.1875 C0.14505642 5.74894081 -0.97217539 8.23277989 -2 11 C-2.66 10.67 -3.32 10.34 -4 10 C-3.43454163 6.04179141 -2.19097652 3.3340947 0 0 Z " fill="#183D7B" transform="translate(536,258)"/>
<path d="M0 0 C0 0.66 0 1.32 0 2 C1.65 2.33 3.3 2.66 5 3 C1.59598052 4.13732426 -0.77456664 3.83989957 -4.25 3.0625 C-5.14203125 2.86785156 -6.0340625 2.67320312 -6.953125 2.47265625 C-7.62859375 2.31667969 -8.3040625 2.16070313 -9 2 C-5.78360346 0.25434889 -3.67986596 -0.204437 0 0 Z " fill="#365485" transform="translate(560,639)"/>
<path d="M0 0 C0.66 0.33 1.32 0.66 2 1 C1.48594831 5.96916636 0.76615118 10.29026351 -1 15 C-1.33 15 -1.66 15 -2 15 C-1.85816304 13.24967156 -1.71136571 11.49974466 -1.5625 9.75 C-1.48128906 8.77546875 -1.40007813 7.8009375 -1.31640625 6.796875 C-1.04925416 4.43538247 -0.64628032 2.28098935 0 0 Z " fill="#D83F42" transform="translate(634,426)"/>
<path d="M0 0 C2.01822917 0.06510417 4.03645833 0.13020833 6.0546875 0.1953125 C6.0546875 0.5253125 6.0546875 0.8553125 6.0546875 1.1953125 C5.1059375 1.4840625 4.1571875 1.7728125 3.1796875 2.0703125 C0.00257172 2.96356359 0.00257172 2.96356359 -1.9453125 5.1953125 C-2.59299043 7.76592561 -2.59299043 7.76592561 -2.9453125 10.1953125 C-3.2753125 10.1953125 -3.6053125 10.1953125 -3.9453125 10.1953125 C-4.140625 4.140625 -4.140625 4.140625 -3.9453125 2.1953125 C-1.9453125 0.1953125 -1.9453125 0.1953125 0 0 Z " fill="#D9323A" transform="translate(480.9453125,416.8046875)"/>
<path d="M0 0 C1.32 0.33 2.64 0.66 4 1 C1.69 3.31 -0.62 5.62 -3 8 C-3.33 7.01 -3.66 6.02 -4 5 C-2.0625 2.3125 -2.0625 2.3125 0 0 Z " fill="#153673" transform="translate(758,576)"/>
<path d="M0 0 C1.56393356 3.97376829 0.36145292 6.81377903 -0.9375 10.75 C-1.31777344 11.92046875 -1.69804688 13.0909375 -2.08984375 14.296875 C-2.39019531 15.18890625 -2.69054687 16.0809375 -3 17 C-4.20220203 13.46905698 -3.79532349 10.87101018 -3.0625 7.25 C-2.86785156 6.26515625 -2.67320312 5.2803125 -2.47265625 4.265625 C-2.31667969 3.51796875 -2.16070313 2.7703125 -2 2 C-1.34 2 -0.68 2 0 2 C0 1.34 0 0.68 0 0 Z " fill="#D95C64" transform="translate(574,409)"/>
<path d="M0 0 C0.33 0 0.66 0 1 0 C0.85866501 1.77119803 0.71176792 3.54195287 0.5625 5.3125 C0.48128906 6.29863281 0.40007813 7.28476562 0.31640625 8.30078125 C0 11 0 11 -1 14 C-1.66 14 -2.32 14 -3 14 C-2.48594831 9.03083364 -1.76615118 4.70973649 0 0 Z " fill="#DB494D" transform="translate(564,396)"/>
<path d="M0 0 C1.010625 0.0825 2.02125 0.165 3.0625 0.25 C3.7225 1.24 4.3825 2.23 5.0625 3.25 C4.175625 3.20875 3.28875 3.1675 2.375 3.125 C-0.91027013 3.24897246 -2.99199295 3.86387904 -5.9375 5.25 C-3.54308339 0.30153901 -3.54308339 0.30153901 0 0 Z " fill="#DB4B50" transform="translate(633.9375,400.75)"/>
<path d="M0 0 C0.33 0 0.66 0 1 0 C0.50269348 4.97306516 -0.55302334 8.63799813 -3 13 C-3.33 13 -3.66 13 -4 13 C-3.50269348 8.02693484 -2.44697666 4.36200187 0 0 Z " fill="#0F2E66" transform="translate(885,376)"/>
<path d="M0 0 C2.31 0.33 4.62 0.66 7 1 C7 1.33 7 1.66 7 2 C9.97 2.33 12.94 2.66 16 3 C16 3.33 16 3.66 16 4 C14.27119018 4.05449838 12.54187288 4.09301688 10.8125 4.125 C9.84957031 4.14820313 8.88664063 4.17140625 7.89453125 4.1953125 C4.87187222 3.9913544 2.73230015 3.26874632 0 2 C0 1.34 0 0.68 0 0 Z " fill="#DD545B" transform="translate(776,301)"/>
<path d="M0 0 C0 3.15987325 -0.38214873 4.36034793 -2 7 C-2.99 7.66 -3.98 8.32 -5 9 C-5.66 8.34 -6.32 7.68 -7 7 C-4.69 4.69 -2.38 2.38 0 0 Z " fill="#183D7A" transform="translate(432,240)"/>
<path d="M0 0 C4.66666667 0.66666667 9.33333333 1.33333333 14 2 C11.23184713 3.96077495 9.15014529 4.1221501 5.875 3.8125 C2 3 2 3 0 0 Z " fill="#2A4779" transform="translate(558,622)"/>
<path d="M0 0 C0.66 0.33 1.32 0.66 2 1 C0.66667905 4.99996286 -1.4957827 5.83782337 -5 8 C-5.66 7.34 -6.32 6.68 -7 6 C-4.69 4.02 -2.38 2.04 0 0 Z " fill="#1A3E7D" transform="translate(734,575)"/>
<path d="M0 0 C1.670625 0.061875 1.670625 0.061875 3.375 0.125 C3.375 0.455 3.375 0.785 3.375 1.125 C1.725 1.455 0.075 1.785 -1.625 2.125 C-1.955 3.115 -2.285 4.105 -2.625 5.125 C-4.6875 6.3125 -4.6875 6.3125 -6.625 7.125 C-5.84042384 2.15601765 -5.49387562 0.18944399 0 0 Z " fill="#DD5257" transform="translate(583.625,337.875)"/>
<path d="M0 0 C0.33 0 0.66 0 1 0 C1.4375 2.1875 1.4375 2.1875 1 5 C-1.13995327 6.98441782 -3.50175965 8.5023304 -6 10 C-4.63201951 6.0100569 -2.79608023 3.15686477 0 0 Z " fill="#1A3A75" transform="translate(410,266)"/>
<path d="M0 0 C0 3 0 3 -1.75 4.82421875 C-2.4925 5.43910156 -3.235 6.05398438 -4 6.6875 C-4.7425 7.31011719 -5.485 7.93273437 -6.25 8.57421875 C-6.8275 9.04472656 -7.405 9.51523437 -8 10 C-8.66 9.67 -9.32 9.34 -10 9 C-6.7 6.03 -3.4 3.06 0 0 Z " fill="#DBDBDF" transform="translate(767,250)"/>
<path d="M0 0 C5.15171623 -0.09038099 9.91913204 0.15318867 15 1 C15 1.33 15 1.66 15 2 C9.43842552 2.91457003 5.324335 3.32086397 0 1 C0 0.67 0 0.34 0 0 Z " fill="#254476" transform="translate(618,171)"/>
<path d="M0 0 C0.66 0.66 1.32 1.32 2 2 C0.38405168 4.04119788 -1.2856382 6.04072937 -3 8 C-3.66 8 -4.32 8 -5 8 C-4.6875 6.0625 -4.6875 6.0625 -4 4 C-3.01 3.67 -2.02 3.34 -1 3 C-0.67 2.01 -0.34 1.02 0 0 Z " fill="#1B3E7F" transform="translate(660,563)"/>
<path d="M0 0 C0.99 0.33 1.98 0.66 3 1 C1.38405168 3.04119788 -0.2856382 5.04072937 -2 7 C-2.66 7 -3.32 7 -4 7 C-3.43628586 3.73045798 -2.50037734 2.17424117 0 0 Z " fill="#1A3B77" transform="translate(847,442)"/>
<path d="M0 0 C2.64 0.66 5.28 1.32 8 2 C8 2.66 8 3.32 8 4 C5.03 3.67 2.06 3.34 -1 3 C-0.67 2.01 -0.34 1.02 0 0 Z " fill="#1E4176" transform="translate(542,636)"/>
<path d="M0 0 C0.66 0.66 1.32 1.32 2 2 C1.19185349 3.33597652 0.37836819 4.668725 -0.4375 6 C-0.88996094 6.7425 -1.34242188 7.485 -1.80859375 8.25 C-2.20175781 8.8275 -2.59492187 9.405 -3 10 C-3.33 10 -3.66 10 -4 10 C-4 8.35 -4 6.7 -4 5 C-3.34 5 -2.68 5 -2 5 C-1.7834375 4.0409375 -1.7834375 4.0409375 -1.5625 3.0625 C-1 1 -1 1 0 0 Z " fill="#193776" transform="translate(854,433)"/>
<path d="M0 0 C0.66 0 1.32 0 2 0 C1.34 3.63 0.68 7.26 0 11 C-0.33 10.34 -0.66 9.68 -1 9 C-1.66 8.67 -2.32 8.34 -3 8 C-2.01 5.36 -1.02 2.72 0 0 Z " fill="#233E71" transform="translate(821,466)"/>
<path d="M0 0 C0.33 0 0.66 0 1 0 C1.66 3.96 2.32 7.92 3 12 C1.68 11.67 0.36 11.34 -1 11 C-0.67 7.37 -0.34 3.74 0 0 Z " fill="#274275" transform="translate(812,420)"/>
<path d="M0 0 C2.88575819 0.39803561 3.82189513 0.79009069 5.75 3.0625 C6.1625 3.701875 6.575 4.34125 7 5 C6.01 5.33 5.02 5.66 4 6 C4 5.34 4 4.68 4 4 C2.68 3.34 1.36 2.68 0 2 C0 1.34 0 0.68 0 0 Z " fill="#1E407B" transform="translate(449,568)"/>
<path d="M0 0 C0.66 0 1.32 0 2 0 C1.745504 1.48206495 1.47088238 2.96068615 1.1875 4.4375 C1.03667969 5.26121094 0.88585937 6.08492188 0.73046875 6.93359375 C0.48941406 7.61550781 0.24835937 8.29742187 0 9 C-0.99 9.33 -1.98 9.66 -3 10 C-3 9.34 -3 8.68 -3 8 C-2.34 8 -1.68 8 -1 8 C-1.020625 7.05125 -1.04125 6.1025 -1.0625 5.125 C-1 2 -1 2 0 0 Z " fill="#D63941" transform="translate(620,477)"/>
<path d="M0 0 C0.66 0 1.32 0 2 0 C1.44687265 4.02992782 0.8441938 8.02022924 0 12 C-0.33 12 -0.66 12 -1 12 C-1.14285714 3.42857143 -1.14285714 3.42857143 0 0 Z " fill="#3C5682" transform="translate(801,354)"/>
<path d="M0 0 C-0.33 0.99 -0.66 1.98 -1 3 C-3.5625 4.1875 -3.5625 4.1875 -6 5 C-6.66 4.34 -7.32 3.68 -8 3 C-3.375 0 -3.375 0 0 0 Z " fill="#DB3A41" transform="translate(780,254)"/>
<path d="M0 0 C0.33 0.66 0.66 1.32 1 2 C1.66 2.33 2.32 2.66 3 3 C0.69 4.32 -1.62 5.64 -4 7 C-3.43628586 3.73045798 -2.50037734 2.17424117 0 0 Z " fill="#183E7D" transform="translate(473,226)"/>
<path d="M0 0 C2.31 0.33 4.62 0.66 7 1 C7.33 2.65 7.66 4.3 8 6 C6.66402348 5.19185349 5.331275 4.37836819 4 3.5625 C3.2575 3.11003906 2.515 2.65757812 1.75 2.19140625 C1.1725 1.79824219 0.595 1.40507812 0 1 C0 0.67 0 0.34 0 0 Z " fill="#1E3F77" transform="translate(710,220)"/>
<path d="M0 0 C0.99 0.66 1.98 1.32 3 2 C2.01 2.495 2.01 2.495 1 3 C0.27840576 4.64363134 -0.39351421 6.31050386 -1 8 C-1.66 7.67 -2.32 7.34 -3 7 C-1.125 1.125 -1.125 1.125 0 0 Z " fill="#1C3E7C" transform="translate(864,386)"/>
<path d="M0 0 C1.9375 0.625 1.9375 0.625 4 2 C4.75 5.125 4.75 5.125 5 8 C2.20127563 5.47211993 0.54226981 3.79588866 0 0 Z " fill="#DD353C" transform="translate(763,288)"/>
<path d="M0 0 C5 2 5 2 10 4 C9.01 4.66 8.02 5.32 7 6 C3.535 4.02 3.535 4.02 0 2 C0 1.34 0 0.68 0 0 Z " fill="#1B3C72" transform="translate(689,188)"/>
<path d="M0 0 C0.75 1.6875 0.75 1.6875 1 4 C-0.9375 6.75 -0.9375 6.75 -3 9 C-3.26218749 5.85375007 -3.24754367 4.38162983 -1.5 1.6875 C-1.005 1.130625 -0.51 0.57375 0 0 Z " fill="#1A3A75" transform="translate(799,523)"/>
<path d="M0 0 C0.33 0.99 0.66 1.98 1 3 C-0.32 4.32 -1.64 5.64 -3 7 C-3.33 6.01 -3.66 5.02 -4 4 C-2.68 2.68 -1.36 1.36 0 0 Z " fill="#1E3E77" transform="translate(844,352)"/>
<path d="M0 0 C0.99 0.33 1.98 0.66 3 1 C0.64031256 3.09749995 -0.54616994 3.96905704 -3.75 4.1875 C-4.86375 4.0946875 -4.86375 4.0946875 -6 4 C-4.03617993 2.49440461 -2.21736634 1.10868317 0 0 Z " fill="#173B77" transform="translate(707,595)"/>
<path d="M0 0 C0.99 0.33 1.98 0.66 3 1 C3 3.31 3 5.62 3 8 C2.34 8 1.68 8 1 8 C0.67 5.36 0.34 2.72 0 0 Z " fill="#DB393D" transform="translate(606,472)"/>
<path d="M0 0 C0.66 0 1.32 0 2 0 C0.25 5.75 0.25 5.75 -2 8 C-2.6875 6.25 -2.6875 6.25 -3 4 C-1.6875 1.75 -1.6875 1.75 0 0 Z " fill="#193A7A" transform="translate(764,461)"/>
<path d="M0 0 C0.66 0 1.32 0 2 0 C1.67 2.64 1.34 5.28 1 8 C0.34 8 -0.32 8 -1 8 C-1.125 2.25 -1.125 2.25 0 0 Z " fill="#273F6F" transform="translate(391,341)"/>
<path d="M0 0 C1 2 1 2 0.875 4 C0 6 0 6 -2.5625 7.25 C-3.366875 7.4975 -4.17125 7.745 -5 8 C-1.125 1.125 -1.125 1.125 0 0 Z " fill="#163874" transform="translate(416,258)"/>
<path d="M0 0 C0.66 0.66 1.32 1.32 2 2 C0.68 3.32 -0.64 4.64 -2 6 C-2.99 5.67 -3.98 5.34 -5 5 C-5 4.34 -5 3.68 -5 3 C-3.68 3 -2.36 3 -1 3 C-0.67 2.01 -0.34 1.02 0 0 Z " fill="#12346F" transform="translate(760,253)"/>
</svg>
